<svg width="24" height="24" viewBox="0 0 24 24" fill="none" xmlns="http://www.w3.org/2000/svg">
<path d="M5.69239 4.1717L6.93971 2.92474C6.96975 2.89456 6.99072 2.85655 7.00023 2.81504C7.00974 2.77353 7.0074 2.73019 6.99349 2.68994C6.97957 2.64969 6.95464 2.61416 6.92153 2.58738C6.88841 2.56059 6.84845 2.54364 6.80617 2.53844L2.25447 2.00159C2.10956 1.98455 1.98455 2.10669 2.00159 2.25439L2.53859 6.8048C2.56132 6.99228 2.79146 7.07181 2.925 6.93831L4.16664 5.69703L7.96541 9.49188C8.05348 9.57993 8.19839 9.57993 8.28647 9.49188L9.49116 8.29036C9.57924 8.20231 9.57924 8.05745 9.49116 7.96939L5.69239 4.1717ZM15.7135 9.49188C15.8016 9.57993 15.9465 9.57993 16.0346 9.49188L19.8334 5.69703L21.075 6.93831C21.1052 6.96834 21.1432 6.9893 21.1847 6.99881C21.2262 7.00831 21.2696 7.00598 21.3099 6.99207C21.3501 6.97816 21.3857 6.95324 21.4125 6.92013C21.4392 6.88703 21.4562 6.84707 21.4614 6.8048L21.9984 2.25723C22.0155 2.11237 21.8933 1.98739 21.7455 2.00443L17.1938 2.54128C17.0063 2.564 16.9268 2.79408 17.0603 2.92758L18.3076 4.17454L14.5088 7.96655C14.4665 8.00926 14.4428 8.06693 14.4428 8.12704C14.4428 8.18714 14.4665 8.24481 14.5088 8.28752L15.7135 9.49188ZM21.4614 17.1952C21.4387 17.0077 21.2085 16.9282 21.075 17.0617L19.8334 18.303L16.0346 14.5081C15.9919 14.4658 15.9342 14.4421 15.8741 14.4421C15.8139 14.4421 15.7563 14.4658 15.7135 14.5081L14.5088 15.7096C14.4665 15.7523 14.4428 15.81 14.4428 15.8701C14.4428 15.9302 14.4665 15.9879 14.5088 16.0306L18.3076 19.8283L17.0603 21.0753C17.0302 21.1054 17.0093 21.1435 16.9998 21.185C16.9903 21.2265 16.9926 21.2698 17.0065 21.3101C17.0204 21.3503 17.0454 21.3858 17.0785 21.4126C17.1116 21.4394 17.1516 21.4564 17.1938 21.4616L21.7455 21.9984C21.8904 22.0154 22.0155 21.8933 21.9984 21.7456L21.4614 17.1952ZM8.28647 14.5081C8.24375 14.4658 8.18606 14.4421 8.12594 14.4421C8.06582 14.4421 8.00813 14.4658 7.96541 14.5081L4.16664 18.303L2.925 17.0617C2.89481 17.0317 2.85679 17.0107 2.81527 17.0012C2.77375 16.9917 2.7304 16.994 2.69014 17.0079C2.64988 17.0218 2.61433 17.0468 2.58754 17.0799C2.56075 17.113 2.54379 17.1529 2.53859 17.1952L2.00159 21.7428C1.98455 21.8876 2.10672 22.0126 2.25447 21.9956L6.80617 21.4587C6.99369 21.436 7.07325 21.2059 6.93971 21.0724L5.69239 19.8283L9.49116 16.0334C9.57924 15.9454 9.57924 15.8005 9.49116 15.7125L8.28647 14.5081Z" fill="#D9D9D9"/>
</svg>
